<mxfile host="app.diagrams.net" modified="2024-05-23T08:38:45.537Z" agent="Mozilla/5.0 (Windows NT 10.0; Win64; x64) AppleWebKit/537.36 (KHTML, like Gecko) Chrome/124.0.0.0 Safari/537.36" version="24.4.4" etag="YAQ8i_dHvtHY8tirXI8P" type="github">
  <diagram name="第 1 页" id="MpXaoYPO6luv1ldQTwg9">
    <mxGraphModel>
      <root>
        <mxCell id="0" />
        <mxCell id="1" parent="0" />
      </root>
    </mxGraphModel>
  </diagram>
</mxfile>
